# xmcd CD database file generated by OrangeCD 6.3
#
# Track frame offsets:
#	150
#	12729
#	28127
#	41431
#	54828
#	72751
#	85824
#	98208
#	116243
#	131140
#	156304
#
# Disc length: 2302 seconds
#
# Revision: 1
# Processed by: cddbd v1.5.2PL0 Copyright (c) Steve Scherf et al.
# Submitted via: OrangeCD 6.3
#
DISCID=9408fc0b
DTITLE=Flávio Guimarães - The Blues Follows Me
DYEAR=2009
DGENRE=
TTITLE0=Off The Wall
TTITLE1=It's Too Late Brother
TTITLE2=Crazy Mixed Up World
TTITLE3=Juke
TTITLE4=Blues All Day Long
TTITLE5=Shake Dancer
TTITLE6=I Got To Go
TTITLE7=St Louis Blues
TTITLE8=If It Ain't Me
TTITLE9=Bill And Jeannette
TTITLE10=Nine Bellow Zero
EXTD=
EXTT0=
EXTT1=
EXTT2=
EXTT3=
EXTT4=
EXTT5=
EXTT6=
EXTT7=
EXTT8=
EXTT9=
EXTT10=
PLAYORDER=
